<svg width="48" height="48" viewBox="0 0 48 48" fill="none" xmlns="http://www.w3.org/2000/svg">
<rect width="48" height="48" rx="8" fill="#232323" fill-opacity="0.05"/>
<rect x="0.5" y="0.5" width="47" height="47" rx="7.5" stroke="#232323" stroke-opacity="0.1"/>
<path d="M15.994 26C15.8048 26.0007 15.6193 25.9476 15.459 25.847C15.2987 25.7464 15.1703 25.6024 15.0886 25.4317C15.0069 25.261 14.9753 25.0706 14.9975 24.8827C15.0197 24.6948 15.0948 24.517 15.214 24.37L25.114 14.17C25.1883 14.0843 25.2895 14.0264 25.401 14.0058C25.5125 13.9852 25.6278 14.0031 25.7278 14.0565C25.8278 14.11 25.9066 14.1959 25.9514 14.3001C25.9961 14.4044 26.0041 14.5207 25.974 14.63L24.054 20.65C23.9974 20.8016 23.9784 20.9646 23.9986 21.125C24.0189 21.2855 24.0777 21.4387 24.1701 21.5715C24.2626 21.7042 24.3858 21.8126 24.5293 21.8872C24.6728 21.9618 24.8323 22.0006 24.994 22H31.994C32.1833 21.9994 32.3688 22.0525 32.5291 22.1531C32.6894 22.2537 32.8178 22.3977 32.8995 22.5684C32.9812 22.7391 33.0127 22.9295 32.9905 23.1174C32.9683 23.3053 32.8933 23.4831 32.774 23.63L22.874 33.83C22.7998 33.9158 22.6986 33.9737 22.5871 33.9943C22.4755 34.0149 22.3603 33.997 22.2603 33.9435C22.1603 33.89 22.0815 33.8041 22.0367 33.6999C21.992 33.5957 21.984 33.4794 22.014 33.37L23.934 27.35C23.9907 27.1985 24.0097 27.0355 23.9895 26.875C23.9692 26.7145 23.9104 26.5614 23.818 26.4286C23.7255 26.2959 23.6023 26.1875 23.4588 26.1129C23.3153 26.0382 23.1558 25.9995 22.994 26H15.994Z" stroke="#232323" stroke-width="2.33273" stroke-linecap="round" stroke-linejoin="round"/>
</svg>
