<svg width="32" height="32" viewBox="0 0 32 32" fill="none" xmlns="http://www.w3.org/2000/svg">
<path d="M18.3066 5.33335C18.0722 4.92925 17.7358 4.59382 17.331 4.36065C16.9261 4.12748 16.4672 4.00475 16 4.00475C15.5328 4.00475 15.0738 4.12748 14.669 4.36065C14.2642 4.59382 13.9277 4.92925 13.6933 5.33335L3.02667 24C2.79274 24.4052 2.66952 24.8648 2.6694 25.3326C2.66928 25.8005 2.79226 26.2602 3.02599 26.6655C3.25971 27.0708 3.59596 27.4075 4.00096 27.6417C4.40596 27.8759 4.86547 27.9995 5.33333 28H26.6666C27.1345 27.9995 27.594 27.8759 27.999 27.6417C28.404 27.4075 28.7403 27.0708 28.974 26.6655C29.2077 26.2602 29.3307 25.8005 29.3306 25.3326C29.3304 24.8648 29.2072 24.4052 28.9733 24L18.3066 5.33335Z" stroke="#232323" stroke-opacity="0.5" stroke-width="2.66627" stroke-linecap="round" stroke-linejoin="round"/>
</svg>
