<svg width="16" height="16" viewBox="0 0 16 16" fill="none" xmlns="http://www.w3.org/2000/svg">
<path d="M11.3498 11C10.2659 11.3393 9.13577 11.508 8 11.5C6.86422 11.508 5.73411 11.3393 4.65016 11M4.65011 4.99999C5.73408 4.66072 6.86421 4.49204 8 4.49999C9.13578 4.49204 10.2659 4.66071 11.3498 4.99998M9.69025 11.3805L10.4418 12.8836C10.4919 12.9846 10.5747 13.0656 10.6768 13.1134C10.7789 13.1612 10.8942 13.1729 11.0038 13.1467C12.5374 12.7718 13.8596 12.118 14.8225 11.281C14.8961 11.2178 14.9498 11.1347 14.9772 11.0417C15.0046 10.9486 15.0045 10.8497 14.977 10.7567L12.8537 3.67879C12.8322 3.60742 12.7951 3.54173 12.7451 3.48649C12.6951 3.43125 12.6334 3.38786 12.5645 3.35947C11.9646 3.11386 11.3442 2.9218 10.7105 2.78554C10.5897 2.75908 10.4635 2.77818 10.356 2.83917C10.2484 2.90016 10.1673 2.99873 10.128 3.11594L9.62969 4.61092M6.30977 11.3805L5.55819 12.8836C5.50811 12.9846 5.42526 13.0656 5.32319 13.1134C5.22112 13.1612 5.10585 13.1729 4.99624 13.1467C3.46257 12.7718 2.14044 12.118 1.17748 11.281C1.10395 11.2178 1.05025 11.1347 1.02284 11.0417C0.995429 10.9486 0.995481 10.8497 1.02299 10.7567L3.14635 3.67879C3.16779 3.60742 3.20486 3.54172 3.25488 3.48649C3.3049 3.43125 3.36661 3.38786 3.43551 3.35947C4.03539 3.11386 4.65581 2.9218 5.28954 2.78554C5.41028 2.75908 5.53654 2.77818 5.64405 2.83917C5.75157 2.90016 5.83274 2.99873 5.87199 3.11594L6.37031 4.61092" stroke="#F1EEE6" stroke-width="1.5" stroke-linecap="round" stroke-linejoin="round"/>
<path d="M10 9.75C10.4142 9.75 10.75 9.41421 10.75 9C10.75 8.58579 10.4142 8.25 10 8.25C9.58579 8.25 9.25 8.58579 9.25 9C9.25 9.41421 9.58579 9.75 10 9.75Z" fill="#F1EEE6"/>
<path d="M6 9.75C6.41421 9.75 6.75 9.41421 6.75 9C6.75 8.58579 6.41421 8.25 6 8.25C5.58579 8.25 5.25 8.58579 5.25 9C5.25 9.41421 5.58579 9.75 6 9.75Z" fill="#F1EEE6"/>
</svg>
