<svg width="32" height="32" viewBox="0 0 32 32" fill="none" xmlns="http://www.w3.org/2000/svg">
<path d="M0 16C0 7.16344 7.16344 0 16 0C24.8365 0 32 7.16344 32 16C32 24.8365 24.8365 32 16 32C7.16344 32 0 24.8365 0 16Z" fill="#232323" fill-opacity="0.05"/>
<path d="M16.0004 0.500074C24.5606 0.500317 31.4998 7.44022 31.4998 16.0004C31.4996 24.5604 24.5604 31.4996 16.0004 31.4998C7.44022 31.4998 0.500317 24.5606 0.500074 16.0004C0.500074 7.44007 7.44007 0.500074 16.0004 0.500074Z" stroke="#232323" stroke-opacity="0.1"/>
<path d="M10.7597 13.2681L15.7604 18.2658L20.7611 13.2681" stroke="#232323" stroke-width="1.66567" stroke-linecap="round" stroke-linejoin="round"/>
</svg>
