<svg width="132" height="20" viewBox="0 0 132 20" fill="none" xmlns="http://www.w3.org/2000/svg">
<path d="M9.60416 1.91274C9.64068 1.83895 9.69709 1.77685 9.76704 1.73342C9.83698 1.69 9.91767 1.66699 9.99999 1.66699C10.0823 1.66699 10.163 1.69 10.233 1.73342C10.3029 1.77685 10.3593 1.83895 10.3958 1.91274L12.3208 5.8119C12.4476 6.06854 12.6348 6.29058 12.8663 6.45895C13.0979 6.62732 13.3668 6.737 13.65 6.77857L17.955 7.40857C18.0366 7.42039 18.1132 7.4548 18.1762 7.5079C18.2393 7.56101 18.2862 7.63069 18.3117 7.70908C18.3372 7.78746 18.3402 7.87141 18.3205 7.95143C18.3007 8.03146 18.259 8.10436 18.2 8.1619L15.0867 11.1936C14.8813 11.3937 14.7277 11.6406 14.639 11.9133C14.5503 12.1859 14.5292 12.476 14.5775 12.7586L15.3125 17.0419C15.3269 17.1234 15.3181 17.2074 15.2871 17.2841C15.2561 17.3609 15.2041 17.4274 15.1371 17.4761C15.0701 17.5247 14.9908 17.5536 14.9082 17.5593C14.8256 17.5651 14.7431 17.5475 14.67 17.5086L10.8217 15.4852C10.5681 15.3521 10.286 15.2825 9.99958 15.2825C9.71318 15.2825 9.43106 15.3521 9.17749 15.4852L5.32999 17.5086C5.25694 17.5472 5.17449 17.5646 5.09204 17.5588C5.00958 17.5529 4.93043 17.524 4.86357 17.4754C4.79672 17.4268 4.74485 17.3604 4.71387 17.2838C4.68289 17.2071 4.67404 17.1233 4.68833 17.0419L5.42249 12.7594C5.47099 12.4767 5.44998 12.1864 5.36128 11.9136C5.27257 11.6408 5.11883 11.3937 4.91333 11.1936L1.79999 8.16274C1.74049 8.10526 1.69832 8.03223 1.6783 7.95197C1.65827 7.8717 1.66119 7.78742 1.68673 7.70873C1.71226 7.63004 1.75938 7.5601 1.82272 7.50689C1.88607 7.45367 1.96308 7.41932 2.04499 7.40774L6.34916 6.77857C6.63271 6.73732 6.90199 6.62778 7.13381 6.45939C7.36564 6.291 7.55308 6.0688 7.67999 5.8119L9.60416 1.91274Z" fill="#232323" stroke="#232323" stroke-width="1.66567" stroke-linecap="round" stroke-linejoin="round"/>
<path d="M37.6042 1.91274C37.6407 1.83895 37.6971 1.77685 37.767 1.73342C37.837 1.69 37.9177 1.66699 38 1.66699C38.0823 1.66699 38.163 1.69 38.233 1.73342C38.3029 1.77685 38.3593 1.83895 38.3958 1.91274L40.3208 5.8119C40.4476 6.06854 40.6348 6.29058 40.8663 6.45895C41.0979 6.62732 41.3668 6.737 41.65 6.77857L45.955 7.40857C46.0366 7.42039 46.1132 7.4548 46.1762 7.5079C46.2393 7.56101 46.2862 7.63069 46.3117 7.70908C46.3372 7.78746 46.3402 7.87141 46.3205 7.95143C46.3007 8.03146 46.259 8.10436 46.2 8.1619L43.0867 11.1936C42.8813 11.3937 42.7277 11.6406 42.639 11.9133C42.5503 12.1859 42.5292 12.476 42.5775 12.7586L43.3125 17.0419C43.3269 17.1234 43.3181 17.2074 43.2871 17.2841C43.2561 17.3609 43.2041 17.4274 43.1371 17.4761C43.0701 17.5247 42.9908 17.5536 42.9082 17.5593C42.8256 17.5651 42.7431 17.5475 42.67 17.5086L38.8217 15.4852C38.5681 15.3521 38.286 15.2825 37.9996 15.2825C37.7132 15.2825 37.4311 15.3521 37.1775 15.4852L33.33 17.5086C33.2569 17.5472 33.1745 17.5646 33.092 17.5588C33.0096 17.5529 32.9304 17.524 32.8636 17.4754C32.7967 17.4268 32.7449 17.3604 32.7139 17.2838C32.6829 17.2071 32.674 17.1233 32.6883 17.0419L33.4225 12.7594C33.471 12.4767 33.45 12.1864 33.3613 11.9136C33.2726 11.6408 33.1188 11.3937 32.9133 11.1936L29.8 8.16274C29.7405 8.10526 29.6983 8.03223 29.6783 7.95197C29.6583 7.8717 29.6612 7.78742 29.6867 7.70873C29.7123 7.63004 29.7594 7.5601 29.8227 7.50689C29.8861 7.45367 29.9631 7.41932 30.045 7.40774L34.3492 6.77857C34.6327 6.73732 34.902 6.62778 35.1338 6.45939C35.3656 6.291 35.5531 6.0688 35.68 5.8119L37.6042 1.91274Z" fill="#232323" stroke="#232323" stroke-width="1.66567" stroke-linecap="round" stroke-linejoin="round"/>
<path d="M65.6042 1.91274C65.6407 1.83895 65.6971 1.77685 65.767 1.73342C65.837 1.69 65.9177 1.66699 66 1.66699C66.0823 1.66699 66.163 1.69 66.233 1.73342C66.3029 1.77685 66.3593 1.83895 66.3958 1.91274L68.3208 5.8119C68.4476 6.06854 68.6348 6.29058 68.8663 6.45895C69.0979 6.62732 69.3668 6.737 69.65 6.77857L73.955 7.40857C74.0366 7.42039 74.1132 7.4548 74.1762 7.5079C74.2393 7.56101 74.2862 7.63069 74.3117 7.70908C74.3372 7.78746 74.3402 7.87141 74.3205 7.95143C74.3007 8.03146 74.259 8.10436 74.2 8.1619L71.0867 11.1936C70.8813 11.3937 70.7277 11.6406 70.639 11.9133C70.5503 12.1859 70.5292 12.476 70.5775 12.7586L71.3125 17.0419C71.3269 17.1234 71.3181 17.2074 71.2871 17.2841C71.2561 17.3609 71.2041 17.4274 71.1371 17.4761C71.0701 17.5247 70.9908 17.5536 70.9082 17.5593C70.8256 17.5651 70.7431 17.5475 70.67 17.5086L66.8217 15.4852C66.5681 15.3521 66.286 15.2825 65.9996 15.2825C65.7132 15.2825 65.4311 15.3521 65.1775 15.4852L61.33 17.5086C61.2569 17.5472 61.1745 17.5646 61.092 17.5588C61.0096 17.5529 60.9304 17.524 60.8636 17.4754C60.7967 17.4268 60.7449 17.3604 60.7139 17.2838C60.6829 17.2071 60.674 17.1233 60.6883 17.0419L61.4225 12.7594C61.471 12.4767 61.45 12.1864 61.3613 11.9136C61.2726 11.6408 61.1188 11.3937 60.9133 11.1936L57.8 8.16274C57.7405 8.10526 57.6983 8.03223 57.6783 7.95197C57.6583 7.8717 57.6612 7.78742 57.6867 7.70873C57.7123 7.63004 57.7594 7.5601 57.8227 7.50689C57.8861 7.45367 57.9631 7.41932 58.045 7.40774L62.3492 6.77857C62.6327 6.73732 62.902 6.62778 63.1338 6.45939C63.3656 6.291 63.5531 6.0688 63.68 5.8119L65.6042 1.91274Z" fill="#232323" stroke="#232323" stroke-width="1.66567" stroke-linecap="round" stroke-linejoin="round"/>
<path d="M93.6042 1.91274C93.6407 1.83895 93.6971 1.77685 93.767 1.73342C93.837 1.69 93.9177 1.66699 94 1.66699C94.0823 1.66699 94.163 1.69 94.233 1.73342C94.3029 1.77685 94.3593 1.83895 94.3958 1.91274L96.3208 5.8119C96.4476 6.06854 96.6348 6.29058 96.8663 6.45895C97.0979 6.62732 97.3668 6.737 97.65 6.77857L101.955 7.40857C102.037 7.42039 102.113 7.4548 102.176 7.5079C102.239 7.56101 102.286 7.63069 102.312 7.70908C102.337 7.78746 102.34 7.87141 102.32 7.95143C102.301 8.03146 102.259 8.10436 102.2 8.1619L99.0867 11.1936C98.8813 11.3937 98.7277 11.6406 98.639 11.9133C98.5503 12.1859 98.5292 12.476 98.5775 12.7586L99.3125 17.0419C99.3269 17.1234 99.3181 17.2074 99.2871 17.2841C99.2561 17.3609 99.2041 17.4274 99.1371 17.4761C99.0701 17.5247 98.9908 17.5536 98.9082 17.5593C98.8256 17.5651 98.7431 17.5475 98.67 17.5086L94.8217 15.4852C94.5681 15.3521 94.286 15.2825 93.9996 15.2825C93.7132 15.2825 93.4311 15.3521 93.1775 15.4852L89.33 17.5086C89.2569 17.5472 89.1745 17.5646 89.092 17.5588C89.0096 17.5529 88.9304 17.524 88.8636 17.4754C88.7967 17.4268 88.7449 17.3604 88.7139 17.2838C88.6829 17.2071 88.674 17.1233 88.6883 17.0419L89.4225 12.7594C89.471 12.4767 89.45 12.1864 89.3613 11.9136C89.2726 11.6408 89.1188 11.3937 88.9133 11.1936L85.8 8.16274C85.7405 8.10526 85.6983 8.03223 85.6783 7.95197C85.6583 7.8717 85.6612 7.78742 85.6867 7.70873C85.7123 7.63004 85.7594 7.5601 85.8227 7.50689C85.8861 7.45367 85.9631 7.41932 86.045 7.40774L90.3492 6.77857C90.6327 6.73732 90.902 6.62778 91.1338 6.45939C91.3656 6.291 91.5531 6.0688 91.68 5.8119L93.6042 1.91274Z" fill="#232323" stroke="#232323" stroke-width="1.66567" stroke-linecap="round" stroke-linejoin="round"/>
<path d="M121.604 1.91274C121.641 1.83895 121.697 1.77685 121.767 1.73342C121.837 1.69 121.918 1.66699 122 1.66699C122.082 1.66699 122.163 1.69 122.233 1.73342C122.303 1.77685 122.359 1.83895 122.396 1.91274L124.321 5.8119C124.448 6.06854 124.635 6.29058 124.866 6.45895C125.098 6.62732 125.367 6.737 125.65 6.77857L129.955 7.40857C130.037 7.42039 130.113 7.4548 130.176 7.5079C130.239 7.56101 130.286 7.63069 130.312 7.70908C130.337 7.78746 130.34 7.87141 130.32 7.95143C130.301 8.03146 130.259 8.10436 130.2 8.1619L127.087 11.1936C126.881 11.3937 126.728 11.6406 126.639 11.9133C126.55 12.1859 126.529 12.476 126.577 12.7586L127.312 17.0419C127.327 17.1234 127.318 17.2074 127.287 17.2841C127.256 17.3609 127.204 17.4274 127.137 17.4761C127.07 17.5247 126.991 17.5536 126.908 17.5593C126.826 17.5651 126.743 17.5475 126.67 17.5086L122.822 15.4852C122.568 15.3521 122.286 15.2825 122 15.2825C121.713 15.2825 121.431 15.3521 121.177 15.4852L117.33 17.5086C117.257 17.5472 117.174 17.5646 117.092 17.5588C117.01 17.5529 116.93 17.524 116.864 17.4754C116.797 17.4268 116.745 17.3604 116.714 17.2838C116.683 17.2071 116.674 17.1233 116.688 17.0419L117.422 12.7594C117.471 12.4767 117.45 12.1864 117.361 11.9136C117.273 11.6408 117.119 11.3937 116.913 11.1936L113.8 8.16274C113.74 8.10526 113.698 8.03223 113.678 7.95197C113.658 7.8717 113.661 7.78742 113.687 7.70873C113.712 7.63004 113.759 7.5601 113.823 7.50689C113.886 7.45367 113.963 7.41932 114.045 7.40774L118.349 6.77857C118.633 6.73732 118.902 6.62778 119.134 6.45939C119.366 6.291 119.553 6.0688 119.68 5.8119L121.604 1.91274Z" fill="#232323" stroke="#232323" stroke-width="1.66567" stroke-linecap="round" stroke-linejoin="round"/>
</svg>
