<svg width="32" height="32" viewBox="0 0 32 32" fill="none" xmlns="http://www.w3.org/2000/svg">
<path d="M3.44799 22.3013C2.94786 21.8013 2.66681 21.1232 2.66666 20.416V11.584C2.66681 10.8768 2.94786 10.1986 3.44799 9.69865L9.69865 3.44799C10.1986 2.94786 10.8768 2.66681 11.584 2.66666H20.416C21.1232 2.66681 21.8013 2.94786 22.3013 3.44799L28.552 9.69865C29.0521 10.1986 29.3331 10.8768 29.3333 11.584V20.416C29.3331 21.1232 29.0521 21.8013 28.552 22.3013L22.3013 28.552C21.8013 29.0521 21.1232 29.3331 20.416 29.3333H11.584C10.8768 29.3331 10.1986 29.0521 9.69865 28.552L3.44799 22.3013Z" stroke="#232323" stroke-opacity="0.5" stroke-width="2.66627" stroke-linecap="round" stroke-linejoin="round"/>
</svg>
