<svg width="32" height="32" viewBox="0 0 32 32" fill="none" xmlns="http://www.w3.org/2000/svg">
<path d="M28 21.3332V10.6666C27.9995 10.199 27.876 9.73968 27.642 9.33482C27.408 8.92995 27.0716 8.59375 26.6666 8.35993L17.3333 3.02661C16.9279 2.79256 16.4681 2.66934 16 2.66934C15.5319 2.66934 15.072 2.79256 14.6666 3.02661L5.33332 8.35993C4.92833 8.59375 4.59196 8.92995 4.35793 9.33482C4.12391 9.73968 4.00046 10.199 3.99998 10.6666V21.3332C4.00046 21.8009 4.12391 22.2602 4.35793 22.665C4.59196 23.0699 4.92833 23.4061 5.33332 23.6399L14.6666 28.9732C15.072 29.2073 15.5319 29.3305 16 29.3305C16.4681 29.3305 16.9279 29.2073 17.3333 28.9732L26.6666 23.6399C27.0716 23.4061 27.408 23.0699 27.642 22.665C27.876 22.2602 27.9995 21.8009 28 21.3332Z" stroke="#232323" stroke-opacity="0.5" stroke-width="2.66627" stroke-linecap="round" stroke-linejoin="round"/>
</svg>
