<svg width="16" height="16" viewBox="0 0 16 16" fill="none" xmlns="http://www.w3.org/2000/svg">
<g clip-path="url(#clip0_128_10929)">
<path d="M10 14.6666V11.9999C10.0927 11.1648 9.85329 10.3266 9.33333 9.66656C11.3333 9.66656 13.3333 8.33323 13.3333 5.99989C13.3867 5.16655 13.1533 4.34655 12.6667 3.66655C12.8533 2.89988 12.8533 2.09988 12.6667 1.33321C12.6667 1.33321 12 1.33321 10.6667 2.33321C8.90666 1.99988 7.09333 1.99988 5.33332 2.33321C3.99999 1.33321 3.33332 1.33321 3.33332 1.33321C3.13332 2.09988 3.13332 2.89988 3.33332 3.66655C2.8479 4.34381 2.6123 5.16841 2.66665 5.99989C2.66665 8.33323 4.66665 9.66656 6.66666 9.66656C6.40666 9.99323 6.21332 10.3666 6.09999 10.7666C5.98666 11.1666 5.95332 11.5866 5.99999 11.9999V14.6666" stroke="#F1EEE6" stroke-opacity="0.8" stroke-width="1.5" stroke-linecap="round" stroke-linejoin="round"/>
<path d="M6.00001 12C2.99334 13.3333 2.66667 10.6667 1.33333 10.6667" stroke="#F1EEE6" stroke-opacity="0.8" stroke-width="1.5" stroke-linecap="round" stroke-linejoin="round"/>
</g>
<defs>
<clipPath id="clip0_128_10929">
<rect width="15.9976" height="15.9976" fill="white"/>
</clipPath>
</defs>
</svg>
